<?xml version="1.0" encoding="utf-8"?>
<!-- Generator: Adobe Illustrator 15.1.0, SVG Export Plug-In . SVG Version: 6.00 Build 0)  -->
<!DOCTYPE svg PUBLIC "-//W3C//DTD SVG 1.0//EN" "http://www.w3.org/TR/2001/REC-SVG-20010904/DTD/svg10.dtd">
<svg version="1.0" id="Layer_1" xmlns="http://www.w3.org/2000/svg" xmlns:xlink="http://www.w3.org/1999/xlink" x="0px" y="0px"
	 width="612px" height="792px" viewBox="0 0 612 792" enable-background="new 0 0 612 792" xml:space="preserve">
<polygon fill="#FFFFFF" stroke="#000000" stroke-miterlimit="10" points="155.738,81.281 150.674,90.496 146.922,99.83 
	143.809,109.259 140.661,118.759 134.752,126.797 126.09,129.102 114.953,130.395 101.621,135.399 92.723,136.699 83.813,132.483 
	74.824,126.313 65.685,121.747 51.275,115.39 47.953,107.618 48.951,96.794 47.502,81.281 44.61,65.378 46.128,54.569 
	52.205,47.641 62.988,43.383 72.598,40.797 81.637,37.709 91.009,33.403 101.621,27.163 113.949,22.536 122.801,24.939 
	128.996,31.021 133.35,37.434 143.74,47.52 154.754,55.951 160.663,66.085 155.738,81.281 "/>
<polygon fill="#FFFFFF" stroke="#000000" stroke-miterlimit="10" points="312.145,79.336 314.883,91.163 308.911,100.019 
	300.786,107.904 297.067,116.814 292.814,124.707 281.341,126.559 267.093,127.496 254.519,132.64 248.083,134.017 242.445,128.438 
	234.737,121.75 222.091,119.802 207.574,121.053 204.798,117.589 206.493,108.683 205.389,93.607 202.141,76.634 202.897,64.034 
	208.266,56.729 218.853,55.641 236.674,53.657 244.296,43.414 248.99,31.678 258.026,25.218 271.323,25.415 279.175,28.548 
	284.384,32.585 289.756,35.489 299.351,40.431 301.385,48.208 303.201,60.587 312.145,79.336 "/>
<polygon fill="#FFFFFF" stroke="#000000" stroke-miterlimit="10" points="470.813,67.961 487.217,84.935 483.644,98.021 
	471.66,108.644 462.835,118.22 456.734,125.971 447.754,127.796 436.554,128.992 423.795,134.859 406.139,143.519 398.203,138.485 
	394.079,128.227 387.859,121.208 373.564,113.868 370.433,104.459 371.469,93.308 369.677,80.742 365.367,65.325 367.042,54.462 
	373.906,47.264 385.162,42.844 395.344,41.348 405.334,40.074 414.897,36.131 423.795,26.623 433.621,16.822 443.438,15.716 
	451.365,22.631 455.524,36.895 456.809,48.352 458.938,56.214 463.182,62.184 470.813,67.961 "/>
</svg>
